<mxfile host="app.diagrams.net" modified="2023-07-17T11:57:05.965Z" agent="Mozilla/5.0 (Macintosh; Intel Mac OS X 10_15_7) AppleWebKit/537.36 (KHTML, like Gecko) Chrome/114.0.0.0 Safari/537.36" version="21.6.2" etag="hFRHObrmTKe-Ol4SYnp2" type="github">
  <diagram name="第 1 页" id="kXE67EV-YyUGU83g_zYA">
    <mxGraphModel>
      <root>
        <mxCell id="0" />
        <mxCell id="1" parent="0" />
      </root>
    </mxGraphModel>
  </diagram>
</mxfile>
